<svg width="19" height="14" viewBox="0 0 19 14" fill="none" xmlns="http://www.w3.org/2000/svg">
<g clip-path="url(#clip0_37_10627)">
<path d="M18.875 0H0.875V1.55167H18.875V0Z" fill="#DC4437"/>
<path d="M18.875 3.11475H0.875V4.66641H18.875V3.11475Z" fill="#DC4437"/>
<path d="M18.875 9.33325H0.875V10.8849H18.875V9.33325Z" fill="#DC4437"/>
<path d="M18.875 12.4485H0.875V14.0002H18.875V12.4485Z" fill="#DC4437"/>
<path d="M18.875 6.21826H0.875V7.76992H18.875V6.21826Z" fill="#DC4437"/>
<path d="M18.875 1.55176H0.875V3.10343H18.875V1.55176Z" fill="white"/>
<path d="M18.875 4.66675H0.875V6.21841H18.875V4.66675Z" fill="white"/>
<path d="M18.875 10.885H0.875V12.4367H18.875V10.885Z" fill="white"/>
<path d="M18.875 7.78174H0.875V9.33341H18.875V7.78174Z" fill="white"/>
<path d="M10.5673 0H0.875V7.78167H10.5673V0Z" fill="#2A66B7"/>
<path d="M2.74354 0.466553L3.062 1.03822L3.782 1.13155L3.25585 1.58655L3.38046 2.21655L2.74354 1.91322L2.10662 2.21655L2.23123 1.58655L1.70508 1.13155L2.42508 1.03822L2.74354 0.466553Z" fill="white"/>
<path d="M5.58338 0.466553L5.90184 1.03822L6.62184 1.13155L6.10954 1.58655L6.22031 2.21655L5.58338 1.91322L4.94646 2.21655L5.05723 1.58655L4.54492 1.13155L5.26492 1.03822L5.58338 0.466553Z" fill="white"/>
<path d="M8.42128 0.466553L8.73974 1.03822L9.45974 1.13155L8.93358 1.58655L9.0582 2.21655L8.42128 1.91322L7.78435 2.21655L7.90897 1.58655L7.38281 1.13155L8.10281 1.03822L8.42128 0.466553Z" fill="white"/>
<path d="M4.19862 2.80005L4.51708 3.37172L5.23708 3.46505L4.72477 3.92005L4.83554 4.55005L4.19862 4.24672L3.5617 4.55005L3.67246 3.92005L3.16016 3.46505L3.88016 3.37172L4.19862 2.80005Z" fill="white"/>
<path d="M7.03651 2.80005L7.35497 3.37172L8.07497 3.46505L7.54882 3.92005L7.67343 4.55005L7.03651 4.24672L6.39959 4.55005L6.5242 3.92005L5.99805 3.46505L6.71805 3.37172L7.03651 2.80005Z" fill="white"/>
<path d="M2.74354 5.27344L3.062 5.8451L3.782 5.93844L3.25585 6.38177L3.38046 7.02344L2.74354 6.7201L2.10662 7.02344L2.23123 6.38177L1.70508 5.93844L2.42508 5.8451L2.74354 5.27344Z" fill="white"/>
<path d="M5.58338 5.27344L5.90184 5.8451L6.62184 5.93844L6.10954 6.38177L6.22031 7.02344L5.58338 6.7201L4.94646 7.02344L5.05723 6.38177L4.54492 5.93844L5.26492 5.8451L5.58338 5.27344Z" fill="white"/>
<path d="M8.42128 5.27344L8.73974 5.8451L9.45974 5.93844L8.93358 6.38177L9.0582 7.02344L8.42128 6.7201L7.78435 7.02344L7.90897 6.38177L7.38281 5.93844L8.10281 5.8451L8.42128 5.27344Z" fill="white"/>
</g>
<defs>
<clipPath id="clip0_37_10627">
<rect width="18" height="14" fill="white" transform="translate(0.875)"/>
</clipPath>
</defs>
</svg>
