<svg width="30" height="30" viewBox="0 0 30 30" fill="none" xmlns="http://www.w3.org/2000/svg">
<path d="M8.17219 22.4166C3.3948 20.979 0 16.4832 0 11.4844C0 5.18438 5.18437 0 11.4844 0C16.4832 0 20.979 3.3948 22.4166 8.17219C22.6203 8.84871 21.979 9.47297 21.3154 9.26479C20.4185 8.9884 19.4761 8.84766 18.5156 8.84766C13.1847 8.84766 8.84766 13.1847 8.84766 18.5156C8.84766 19.4761 8.9884 20.4185 9.26478 21.3154C9.47215 21.9838 8.84766 22.6186 8.17219 22.4166Z" fill="#2682FF"/>
<path d="M18.5164 29.9999C13.5175 29.9999 9.02177 26.6051 7.58411 21.8278C7.49054 21.517 7.57638 21.1797 7.80729 20.9506C8.03558 20.7214 8.37378 20.6381 8.68532 20.7351C9.58222 21.0115 10.5246 21.1523 11.4851 21.1523C16.816 21.1523 21.1531 16.8152 21.1531 11.4843C21.1531 10.5239 21.0123 9.58143 20.7359 8.68454C20.6398 8.37469 20.7231 8.03649 20.9514 7.80651C21.1806 7.57647 21.5205 7.49239 21.8286 7.58333C26.6059 9.02098 30.0007 13.5168 30.0007 18.5156C30.0007 24.8156 24.8164 29.9999 18.5164 29.9999Z" fill="#C6E2E7"/>
<path d="M22.9102 11.4844C22.9102 10.1868 22.7061 8.93461 22.2722 7.72775C21.0654 7.29393 19.8132 7.08984 18.5156 7.08984C17.6719 7.08984 16.8457 7.17773 16.0546 7.35357L16.3927 8.72449L14.1739 7.95117C13.5938 8.17969 13.0489 8.47852 12.5215 8.79486L13.2711 10.7631L11.0977 9.84961C10.6407 10.2188 10.2188 10.6406 9.86725 11.0977L10.8171 13.3576L8.79486 12.5215C8.47846 13.0313 8.19727 13.5938 7.95117 14.1563L8.75478 16.4549L7.35357 16.0546C7.17773 16.8457 7.08984 17.6719 7.08984 18.5156C7.08984 19.8132 7.29393 21.0654 7.72775 22.2722C8.93461 22.7061 10.1868 22.9102 11.4844 22.9102C12.3281 22.9102 13.1543 22.8223 13.9454 22.6464L13.431 21.0491L15.8438 22.0488C16.4062 21.8027 16.9687 21.5215 17.4785 21.2051L16.5459 19.0536L18.9023 20.1328C19.3593 19.7812 19.7812 19.3594 20.1504 18.9023L19.0371 16.4793L21.2051 17.4785C21.5215 16.9512 21.8203 16.4062 22.0488 15.8262L21.0354 13.3753L22.6464 13.9454C22.8223 13.1543 22.9102 12.3281 22.9102 11.4844Z" fill="#7ED8F6"/>
<path d="M11.4832 22.9102C12.3269 22.9102 13.1531 22.8223 13.9442 22.6465L13.4298 21.0491L15.8426 22.0489C16.4051 21.8028 16.9676 21.5215 17.4773 21.2052L16.5447 19.0536L18.9011 20.1328C19.3581 19.7813 19.78 19.3594 20.1492 18.9024L19.0359 16.4793L21.2039 17.4785C21.5204 16.9512 21.8191 16.4063 22.0476 15.8262L21.0342 13.3753L22.6452 13.9454C22.8211 13.1543 22.909 12.3281 22.909 11.4844C22.909 10.1868 22.7049 8.93458 22.2711 7.72778L7.72656 22.2723C8.93336 22.7061 10.1856 22.9102 11.4832 22.9102Z" fill="#6AA9FF"/>
<path d="M15.8417 22.0488C15.2266 22.2949 14.5938 22.5059 13.9434 22.6464L7.35156 16.0546C7.49213 15.4042 7.70307 14.7715 7.94916 14.1562L15.8417 22.0488Z" fill="#2682FF"/>
<path d="M18.9004 20.1328C18.4609 20.5371 17.9864 20.8886 17.4766 21.2051L8.79297 12.5215C9.10949 12.0117 9.46094 11.5371 9.86529 11.0977L18.9004 20.1328Z" fill="#2682FF"/>
<path d="M21.2051 17.4785C20.8886 17.9883 20.5371 18.4629 20.1503 18.9023L11.0977 9.84967C11.5371 9.46289 12.0117 9.11145 12.5215 8.79492L21.2051 17.4785Z" fill="#2682FF"/>
<path d="M22.6444 13.9453C22.5038 14.5957 22.2929 15.2285 22.0468 15.8261L14.1719 7.95111C14.7695 7.70502 15.4023 7.49408 16.0526 7.35352L22.6444 13.9453Z" fill="#2682FF"/>
<path d="M13.9443 22.6464C14.5947 22.5059 15.2275 22.2949 15.8427 22.0488L11.8964 18.1025L10.6484 19.3505L13.9443 22.6464Z" fill="#2682FF"/>
<path d="M17.4785 21.2051C17.9883 20.8886 18.4628 20.5372 18.9023 20.1328L14.3848 15.6152L13.1367 16.8633L17.4785 21.2051Z" fill="#2682FF"/>
<path d="M20.1513 18.9022C20.5381 18.4627 20.8895 17.9882 21.2061 17.4783L16.8643 13.1365L15.625 14.3758L20.1513 18.9022Z" fill="#2682FF"/>
<path d="M18.1094 11.8886L22.0469 15.8261C22.293 15.2285 22.5039 14.5956 22.6445 13.9453L19.3486 10.6494L18.1094 11.8886Z" fill="#2682FF"/>
</svg>
